<svg width="1921" height="1080" viewBox="0 0 1921 1211" fill="none" xmlns="http://www.w3.org/2000/svg">
<path d="M187.5 890C380 803 306.5 659 512.5 596C718.5 533 971 617 1156 596C1341 575 1285 320.5 1358.5 86C1432 -148.5 1921 176.5 1921 176.5V1211H1.00003C1.00003 1211 -5 977 187.5 890Z" fill="#2A6B02" fill-opacity="0.3"/>
<path d="M187.5 890C380 803 306.5 659 512.5 596C718.5 533 971 617 1156 596C1341 575 1285 320.5 1358.5 86C1432 -148.5 1921 176.5 1921 176.5V1211H1.00003C1.00003 1211 -5 977 187.5 890Z" fill="#2A6B02" fill-opacity="0.3"/>
<path d="M296 1064.18C488.5 977.18 404.5 802.18 610.5 739.18C816.5 676.18 981.5 938.414 1166.5 917.414C1351.5 896.414 1428.5 767.414 1502 532.914C1575.5 298.414 1921 567.68 1921 567.68V1210.91H1C1 1210.91 103.5 1151.18 296 1064.18Z" fill="#2A6B02" fill-opacity="0.3"/>
<path d="M296 1064.18C488.5 977.18 404.5 802.18 610.5 739.18C816.5 676.18 981.5 938.414 1166.5 917.414C1351.5 896.414 1428.5 767.414 1502 532.914C1575.5 298.414 1921 567.68 1921 567.68V1210.91H1C1 1210.91 103.5 1151.18 296 1064.18Z" fill="#2A6B02" fill-opacity="0.3"/>
</svg>
